# Blender 4.2.3 LTS
# www.blender.org
mtllib CoffeeTable3.mtl
o s4studio_mesh_1
v -0.621540 0.495621 -0.353160
v 0.000000 0.495621 0.353160
v 0.000000 0.495621 -0.353160
v -0.621540 0.495621 0.353160
v 0.621540 0.495621 -0.353160
v 0.000000 -0.000000 -0.353160
v 0.646138 0.000000 0.353160
v 0.000000 0.000000 0.353160
v 0.621540 0.495621 0.353160
v -0.646138 0.000000 0.353160
v -0.646138 -0.000000 -0.353160
v 0.000000 0.113743 0.353160
v 0.000000 0.113742 -0.353160
v -0.645985 0.113742 -0.353160
v -0.645985 0.113743 0.353160
v -0.621815 0.443251 0.353160
v -0.621815 0.443251 -0.353160
v 0.000000 0.443251 -0.353160
v 0.000000 0.443251 0.353160
v -0.645985 0.113742 -0.353160
v 0.000000 0.113742 -0.353160
v 0.000000 -0.000000 -0.353160
v -0.646138 -0.000000 -0.353160
v 0.000000 0.495621 -0.353160
v 0.000000 0.443251 -0.353160
v -0.621815 0.443251 -0.353160
v -0.621540 0.495621 -0.353160
v -0.645985 0.113743 0.353160
v -0.646138 0.000000 0.353160
v 0.000000 0.000000 0.353160
v 0.000000 0.113743 0.353160
v 0.000000 0.495621 0.353160
v -0.621540 0.495621 0.353160
v -0.621815 0.443251 0.353160
v 0.000000 0.443251 0.353160
v -0.646138 0.000000 0.353160
v -0.645985 0.113742 -0.353160
v -0.646138 -0.000000 -0.353160
v -0.621815 0.443251 0.353160
v -0.621540 0.495621 -0.353160
v -0.621815 0.443251 -0.353160
v 0.646138 -0.000000 -0.353160
v 0.645985 0.113742 -0.353160
v 0.645985 0.113743 0.353160
v 0.621815 0.443251 0.353160
v 0.621815 0.443251 -0.353160
v 0.645985 0.113742 -0.353160
v 0.646138 -0.000000 -0.353160
v 0.621815 0.443251 -0.353160
v 0.621540 0.495621 -0.353160
v 0.645985 0.113743 0.353160
v 0.646138 0.000000 0.353160
v 0.621815 0.443251 0.353160
v 0.621540 0.495621 0.353160
v 0.672597 0.420820 -0.353160
v 0.713920 0.393902 0.353160
v 0.672597 0.420820 0.353160
v 0.621815 0.443251 -0.353160
v 0.621815 0.443251 0.353160
v 0.713920 0.393902 -0.353160
v 0.745628 0.363506 0.353160
v 0.767724 0.330607 -0.353160
v 0.767724 0.330607 0.353160
v 0.780053 0.296182 0.353160
v 0.780053 0.296182 -0.353160
v 0.782617 0.261269 0.353160
v 0.782617 0.261269 -0.353160
v 0.775323 0.226814 0.353160
v 0.775323 0.226814 -0.353160
v 0.758080 0.193854 0.353160
v 0.758080 0.193854 -0.353160
v 0.730827 0.163366 0.353160
v 0.730827 0.163366 -0.353160
v 0.693472 0.136326 0.353160
v 0.693472 0.136326 -0.353160
v 0.645985 0.113743 0.353160
v 0.621815 0.443251 -0.353160
v 0.697043 0.461898 -0.353160
v 0.672597 0.420820 -0.353160
v 0.713920 0.393902 -0.353160
v 0.758141 0.421400 -0.353160
v 0.745628 0.363506 -0.353160
v 0.804682 0.375683 -0.353160
v 0.767724 0.330607 -0.353160
v 0.836695 0.326182 -0.353160
v 0.780053 0.296182 -0.353160
v 0.853999 0.274422 -0.353160
v 0.782617 0.261269 -0.353160
v 0.856624 0.221900 -0.353160
v 0.775323 0.226814 -0.353160
v 0.844417 0.170110 -0.353160
v 0.758080 0.193854 -0.353160
v 0.817347 0.120518 -0.353160
v 0.730827 0.163366 -0.353160
v 0.775323 0.074648 -0.353160
v 0.693472 0.136326 -0.353160
v 0.718284 0.033967 -0.353160
v 0.645985 0.113742 -0.353160
v 0.621540 0.495621 0.353160
v 0.697043 0.461898 -0.353160
v 0.621540 0.495621 -0.353160
v 0.758141 0.421400 0.353160
v 0.758141 0.421400 -0.353160
v 0.804682 0.375683 -0.353160
v 0.804682 0.375683 0.353160
v 0.836695 0.326182 -0.353160
v 0.836695 0.326182 0.353160
v 0.853999 0.274422 -0.353160
v 0.853999 0.274422 0.353160
v 0.856624 0.221900 -0.353160
v 0.856624 0.221900 0.353160
v 0.844417 0.170110 -0.353160
v 0.844417 0.170110 0.353160
v 0.817347 0.120518 -0.353160
v 0.817347 0.120518 0.353160
v 0.775323 0.074648 -0.353160
v 0.775323 0.074648 0.353160
v 0.718284 0.033967 -0.353160
v 0.718284 0.033967 0.353160
v 0.646138 -0.000000 -0.353160
v 0.621815 0.443251 0.353160
v 0.697043 0.461898 0.353160
v 0.621540 0.495621 0.353160
v 0.713920 0.393902 0.353160
v 0.758141 0.421400 0.353160
v 0.745628 0.363506 0.353160
v 0.804682 0.375683 0.353160
v 0.767724 0.330607 0.353160
v 0.836695 0.326182 0.353160
v 0.780053 0.296182 0.353160
v 0.853999 0.274422 0.353160
v 0.782617 0.261269 0.353160
v 0.856624 0.221900 0.353160
v 0.775323 0.226814 0.353160
v 0.844417 0.170110 0.353160
v 0.758080 0.193854 0.353160
v 0.817347 0.120518 0.353160
v 0.730827 0.163366 0.353160
v 0.775323 0.074648 0.353160
v 0.693472 0.136326 0.353160
v 0.718284 0.033967 0.353160
v 0.645985 0.113743 0.353160
v 0.646138 0.000000 0.353160
v -0.645985 0.113743 0.353160
v -0.621540 0.495621 0.353160
v 0.745628 0.363506 -0.353160
v 0.645985 0.113742 -0.353160
v 0.621540 0.495621 -0.353160
v 0.646138 -0.000000 -0.353160
v 0.697043 0.461898 0.353160
v 0.646138 0.000000 0.353160
v 0.672597 0.420820 0.353160
vn -0.0000 1.0000 -0.0000
vn -0.0000 -1.0000 -0.0000
vn -0.0000 -0.0000 -1.0000
vn -0.0000 -0.0000 1.0000
vn -1.0000 0.0013 -0.0000
vn -1.0000 0.0052 -0.0000
vn -0.4765 -0.8792 -0.0000
vn -0.6216 -0.7833 -0.0000
vn -0.4040 -0.9147 -0.0000
vn -0.7655 -0.6434 -0.0000
vn -0.8926 -0.4508 -0.0000
vn -0.9783 -0.2071 -0.0000
vn -0.9977 0.0676 -0.0000
vn -0.9410 0.3385 -0.0000
vn -0.8221 0.5693 -0.0000
vn -0.6698 0.7425 -0.0000
vn -0.5100 0.8601 -0.0000
vn -0.4295 0.9031 -0.0000
vn 0.4078 0.9131 -0.0000
vn 0.4818 0.8763 -0.0000
vn 0.6295 0.7770 -0.0000
vn 0.7749 0.6321 -0.0000
vn 0.9012 0.4335 -0.0000
vn 0.9827 0.1852 -0.0000
vn 0.9959 -0.0907 -0.0000
vn 0.9339 -0.3575 -0.0000
vn 0.8135 -0.5816 -0.0000
vn 0.6626 -0.7489 -0.0000
vn 0.5053 -0.8629 -0.0000
vn 0.4260 -0.9047 -0.0000
vt 0.000946 0.000977
vt 0.218238 0.192206
vt 0.000977 0.192206
vt 0.218238 0.000977
vt 0.000946 0.383404
vt 0.000946 0.800287
vt 0.218238 0.601520
vt 0.218238 0.800287
vt 0.218238 0.383404
vt 0.218238 0.999054
vt 0.000946 0.999054
vt 0.593371 0.199713
vt 0.376110 0.199713
vt 0.376110 0.000977
vt 0.593402 0.000977
vt 0.376293 0.401105
vt 0.593554 0.401105
vt 0.593554 0.592395
vt 0.376293 0.592395
vt 0.338420 0.463210
vt 0.338420 0.264504
vt 0.373394 0.264504
vt 0.373394 0.463271
vt 0.220954 0.264504
vt 0.237037 0.264504
vt 0.237037 0.455794
vt 0.220954 0.455702
vt 0.338603 0.466018
vt 0.373577 0.465987
vt 0.373577 0.664754
vt 0.338603 0.664754
vt 0.221107 0.664754
vt 0.221107 0.473556
vt 0.237220 0.473464
vt 0.237220 0.664754
vt 0.274911 0.508988
vt 0.239937 0.291696
vt 0.274911 0.291696
vt 0.257241 0.289010
vt 0.241127 0.071718
vt 0.257241 0.071718
vt 0.000946 0.601520
vt 0.376110 0.398419
vt 0.593402 0.398419
vt 0.376293 0.783654
vt 0.593554 0.783654
vt 0.338420 0.065798
vt 0.373394 0.065737
vt 0.237037 0.073244
vt 0.220954 0.073305
vt 0.338603 0.863460
vt 0.373577 0.863521
vt 0.237220 0.856014
vt 0.221107 0.855953
vt 0.376293 0.914487
vt 0.593554 0.899319
vt 0.593554 0.914487
vt 0.376293 0.931547
vt 0.593554 0.931547
vt 0.376293 0.899319
vt 0.593554 0.885800
vt 0.376293 0.873592
vt 0.593554 0.873592
vt 0.593554 0.862362
vt 0.376293 0.862362
vt 0.593554 0.851588
vt 0.376293 0.851588
vt 0.593554 0.840754
vt 0.376293 0.840754
vt 0.593554 0.829310
vt 0.376293 0.829310
vt 0.593554 0.816736
vt 0.376293 0.816736
vt 0.593554 0.802545
vt 0.376293 0.802545
vt 0.593554 0.786370
vt 0.231330 0.050081
vt 0.243965 0.057619
vt 0.252235 0.044893
vt 0.243782 0.031312
vt 0.261574 0.035127
vt 0.257851 0.016968
vt 0.271706 0.028352
vt 0.273080 0.007141
vt 0.282296 0.024537
vt 0.288980 0.001801
vt 0.293039 0.023774
vt 0.305155 0.001007
vt 0.303629 0.026002
vt 0.321085 0.004761
vt 0.313761 0.031312
vt 0.336344 0.013092
vt 0.323160 0.039705
vt 0.350444 0.026002
vt 0.331462 0.051180
vt 0.362957 0.043550
vt 0.000946 0.408826
vt 0.218238 0.431379
vt 0.000946 0.431379
vt 0.000946 0.451460
vt 0.218238 0.451460
vt 0.000946 0.469588
vt 0.218238 0.469588
vt 0.000946 0.486373
vt 0.218238 0.486373
vt 0.000946 0.502548
vt 0.218238 0.502548
vt 0.000946 0.518906
vt 0.218238 0.518906
vt 0.000946 0.536302
vt 0.218238 0.536302
vt 0.000946 0.555437
vt 0.218238 0.555437
vt 0.000946 0.576983
vt 0.218238 0.576983
vt 0.231483 0.879177
vt 0.252419 0.884365
vt 0.243965 0.897946
vt 0.261757 0.894101
vt 0.258034 0.912290
vt 0.271889 0.900906
vt 0.273232 0.922117
vt 0.282479 0.904691
vt 0.289163 0.927458
vt 0.293222 0.905484
vt 0.305307 0.928251
vt 0.303812 0.903256
vt 0.321268 0.924497
vt 0.313944 0.897946
vt 0.336497 0.916166
vt 0.323344 0.889553
vt 0.350627 0.903256
vt 0.331645 0.878079
vt 0.363140 0.885708
vt 0.239937 0.508988
vt 0.241127 0.289010
vt 0.376293 0.885800
vt 0.376293 0.786370
vt 0.218238 0.408826
vt 0.244118 0.871639
s 1
usemtl DIFFUSE.012
f 1/1/1 2/2/1 3/3/1
f 1/1/1 4/4/1 2/2/1
f 5/5/1 3/3/1 2/2/1
f 6/6/2 7/7/2 8/8/2
f 5/5/1 2/2/1 9/9/1
f 6/6/2 8/8/2 10/10/2
f 6/6/2 10/10/2 11/11/2
f 12/12/1 13/13/1 14/14/1
f 12/12/1 14/14/1 15/15/1
f 16/16/2 17/17/2 18/18/2
f 16/16/2 18/18/2 19/19/2
f 20/20/3 21/21/3 22/22/3
f 20/20/3 22/22/3 23/23/3
f 24/24/3 25/25/3 26/26/3
f 24/24/3 26/26/3 27/27/3
f 28/28/4 29/29/4 30/30/4
f 28/28/4 30/30/4 31/31/4
f 32/32/4 33/33/4 34/34/4
f 32/32/4 34/34/4 35/35/4
f 36/36/5 37/37/5 38/38/5
f 39/39/6 40/40/6 41/41/6
f 6/6/2 42/42/2 7/7/2
f 12/12/1 43/43/1 13/13/1
f 12/12/1 44/44/1 43/43/1
f 45/45/2 18/18/2 46/46/2
f 45/45/2 19/19/2 18/18/2
f 47/47/3 22/22/3 21/21/3
f 47/47/3 48/48/3 22/22/3
f 24/24/3 49/49/3 25/25/3
f 24/24/3 50/50/3 49/49/3
f 51/51/4 30/30/4 52/52/4
f 51/51/4 31/31/4 30/30/4
f 32/32/4 53/53/4 54/54/4
f 32/32/4 35/35/4 53/53/4
f 55/55/7 56/56/8 57/57/7
f 58/58/9 57/57/7 59/59/9
f 60/60/8 61/61/10 56/56/8
f 61/61/10 62/62/11 63/63/11
f 62/62/11 64/64/12 63/63/11
f 65/65/12 66/66/13 64/64/12
f 67/67/13 68/68/14 66/66/13
f 69/69/14 70/70/15 68/68/14
f 71/71/15 72/72/16 70/70/15
f 73/73/16 74/74/17 72/72/16
f 75/75/17 76/76/18 74/74/17
f 77/49/3 78/77/3 79/78/3
f 78/77/3 80/79/3 79/78/3
f 81/80/3 82/81/3 80/79/3
f 83/82/3 84/83/3 82/81/3
f 85/84/3 86/85/3 84/83/3
f 87/86/3 88/87/3 86/85/3
f 89/88/3 90/89/3 88/87/3
f 91/90/3 92/91/3 90/89/3
f 93/92/3 94/93/3 92/91/3
f 95/94/3 96/95/3 94/93/3
f 97/96/3 98/47/3 96/95/3
f 99/9/19 100/97/20 101/5/19
f 100/97/20 102/98/21 103/99/21
f 102/98/21 104/100/22 103/99/21
f 105/101/22 106/102/23 104/100/22
f 107/103/23 108/104/24 106/102/23
f 109/105/24 110/106/25 108/104/24
f 111/107/25 112/108/26 110/106/25
f 113/109/26 114/110/27 112/108/26
f 115/111/27 116/112/28 114/110/27
f 117/113/28 118/114/29 116/112/28
f 119/115/29 120/42/30 118/114/29
f 121/53/4 122/116/4 123/54/4
f 122/116/4 124/117/4 125/118/4
f 125/118/4 126/119/4 127/120/4
f 127/120/4 128/121/4 129/122/4
f 129/122/4 130/123/4 131/124/4
f 131/124/4 132/125/4 133/126/4
f 133/126/4 134/127/4 135/128/4
f 135/128/4 136/129/4 137/130/4
f 137/130/4 138/131/4 139/132/4
f 139/132/4 140/133/4 141/134/4
f 141/134/4 142/51/4 143/52/4
f 36/36/5 144/135/5 37/37/5
f 39/39/6 145/136/6 40/40/6
f 55/55/7 60/60/8 56/56/8
f 58/58/9 55/55/7 57/57/7
f 60/60/8 146/137/10 61/61/10
f 61/61/10 146/137/10 62/62/11
f 62/62/11 65/65/12 64/64/12
f 65/65/12 67/67/13 66/66/13
f 67/67/13 69/69/14 68/68/14
f 69/69/14 71/71/15 70/70/15
f 71/71/15 73/73/16 72/72/16
f 73/73/16 75/75/17 74/74/17
f 75/75/17 147/138/18 76/76/18
f 77/49/3 148/50/3 78/77/3
f 78/77/3 81/80/3 80/79/3
f 81/80/3 83/82/3 82/81/3
f 83/82/3 85/84/3 84/83/3
f 85/84/3 87/86/3 86/85/3
f 87/86/3 89/88/3 88/87/3
f 89/88/3 91/90/3 90/89/3
f 91/90/3 93/92/3 92/91/3
f 93/92/3 95/94/3 94/93/3
f 95/94/3 97/96/3 96/95/3
f 97/96/3 149/48/3 98/47/3
f 99/9/19 150/139/20 100/97/20
f 100/97/20 150/139/20 102/98/21
f 102/98/21 105/101/22 104/100/22
f 105/101/22 107/103/23 106/102/23
f 107/103/23 109/105/24 108/104/24
f 109/105/24 111/107/25 110/106/25
f 111/107/25 113/109/26 112/108/26
f 113/109/26 115/111/27 114/110/27
f 115/111/27 117/113/28 116/112/28
f 117/113/28 119/115/29 118/114/29
f 119/115/29 151/7/30 120/42/30
f 121/53/4 152/140/4 122/116/4
f 122/116/4 152/140/4 124/117/4
f 125/118/4 124/117/4 126/119/4
f 127/120/4 126/119/4 128/121/4
f 129/122/4 128/121/4 130/123/4
f 131/124/4 130/123/4 132/125/4
f 133/126/4 132/125/4 134/127/4
f 135/128/4 134/127/4 136/129/4
f 137/130/4 136/129/4 138/131/4
f 139/132/4 138/131/4 140/133/4
f 141/134/4 140/133/4 142/51/4
